<?xml version="1.0" encoding="utf-8"?>
<!-- Generator: Adobe Illustrator 19.0.0, SVG Export Plug-In . SVG Version: 6.00 Build 0)  -->
<svg version="1.1" id="Layer_1" xmlns="http://www.w3.org/2000/svg" xmlns:xlink="http://www.w3.org/1999/xlink" x="0px" y="0px"
	 viewBox="0 0 106 106" enable-background="new 0 0 106 106" xml:space="preserve">
<g id="XMLID_5_">
	<g id="XMLID_131_">
		<path id="XMLID_78_" fill="#DEECF9" d="M53,104.5c-13.1,0-25.5-4.9-35.1-13.8c-0.9-0.8-1.7-1.6-2.5-2.5C6.4,78.6,1.5,66.1,1.5,53
			C1.5,24.6,24.6,1.5,53,1.5s51.5,23.1,51.5,51.5c0,13.1-4.9,25.6-13.9,35.2c-0.8,0.8-1.6,1.6-2.5,2.5
			C78.5,99.6,66.1,104.5,53,104.5z"/>
		<path id="XMLID_75_" fill="#27AAE1" d="M53,3c27.6,0,50,22.4,50,50c0,13.2-5.1,25.2-13.5,34.2c-0.8,0.8-1.6,1.6-2.4,2.4
			C78.1,97.9,66.2,103,53,103c-13.2,0-25.1-5.1-34.1-13.4c-0.8-0.8-1.7-1.6-2.4-2.4C8.1,78.2,3,66.2,3,53C3,25.4,25.4,3,53,3 M53,0
			C23.8,0,0,23.8,0,53c0,13.5,5.1,26.3,14.3,36.2c0.9,0.9,1.7,1.8,2.6,2.6C26.7,101,39.5,106,53,106c13.4,0,26.3-5,36.1-14.2
			c1-0.9,1.8-1.7,2.6-2.6C100.9,79.3,106,66.5,106,53C106,23.8,82.2,0,53,0L53,0z"/>
	</g>
	<path id="XMLID_87_" fill="#FDEADD" d="M68.2,34.7h-1.8v2.4c-9.4,0-17.1-3.8-17.1-8.5c0,4-4.4,7.3-9.8,7.3v-1.2h-1.8
		c-2.4,0-4.3,1.9-4.3,4.3s1.9,4.3,4.3,4.3h1.8V42c0,5.4,3.2,10.1,7.9,12.2h-0.5L53,66.4l6.1-12.2h-0.5c1.9-0.9,3.5-2.1,4.8-3.7
		c1.9-2.3,3.1-5.3,3.1-8.5v1.2h1.8c2.4,0,4.3-1.9,4.3-4.3S70.6,34.7,68.2,34.7z"/>
	<path id="XMLID_83_" fill="#E8E6F3" d="M70,66.4H35.9c-2.7,0-4.9,2.2-4.9,4.9v17.1h43.9V71.3C74.9,68.6,72.7,66.4,70,66.4z"/>
	<g id="XMLID_21_">
		<path id="XMLID_48_" fill="#D8C9E3" d="M46.9,54.2H42c-9.4,0-17.1,7.6-17.1,17.1v17.1H31V71.3c0-2.7,2.2-4.9,4.9-4.9H53L46.9,54.2
			z M44,55.4h2.2l4.9,9.8h-2.2L44,55.4z"/>
		<path id="XMLID_45_" fill="#D8C9E3" d="M63.9,54.2h-4.9L53,66.4H70c2.7,0,4.9,2.2,4.9,4.9v17.1H81V71.3
			C81,61.9,73.4,54.2,63.9,54.2z M57.1,65.2h-2.1l4.9-9.8H62L57.1,65.2z"/>
	</g>
	<path id="XMLID_39_" fill="#2C2D42" d="M48.1,42c0.7,0,1.2,0.5,1.2,1.2h2.4c0-2-1.6-3.7-3.7-3.7c-2,0-3.7,1.6-3.7,3.7h2.4
		C46.9,42.6,47.4,42,48.1,42z"/>
	<path id="XMLID_38_" fill="#2C2D42" d="M57.8,42c0.7,0,1.2,0.5,1.2,1.2h2.4c0-2-1.6-3.7-3.7-3.7c-2,0-3.7,1.6-3.7,3.7h2.4
		C56.6,42.6,57.2,42,57.8,42z"/>
	<path id="XMLID_33_" fill="#2C2D42" d="M82.2,87.2V71.3C82.2,61.2,74,53,63.9,53h-1.3c0.4-0.4,0.8-0.8,1.2-1.2h1.3
		c3.4,0,6.1-2.7,6.1-6.1v-2.1c1.5-1,2.4-2.7,2.4-4.6s-1-3.6-2.5-4.6c-0.2-10-8.3-18-18.3-18s-18.1,8-18.3,18c-1.5,1-2.5,2.7-2.5,4.6
		c0,3,2.5,5.5,5.5,5.5h0.8c0.6,3.4,2.3,6.4,4.8,8.5H42c-10.1,0-18.3,8.2-18.3,18.3v15.9h-7.2c0.8,0.8,1.6,1.6,2.4,2.4
		C27.9,97.9,39.8,103,53,103s25.1-5.1,34.1-13.4c0.8-0.8,1.7-1.6,2.4-2.4H82.2z M68.8,45.7c0,1.9-1.4,3.4-3.2,3.6
		c0.8-1.5,1.4-3.1,1.7-4.8h0.8c0.2,0,0.4,0,0.6-0.1V45.7z M71.3,39c0,1.7-1.4,3.1-3,3.1h-0.6v-6.1h0.6C69.9,35.9,71.3,37.3,71.3,39z
		 M38.3,42h-0.6c-1.7,0-3.1-1.4-3.1-3.1c0-1.7,1.4-3.1,3.1-3.1h0.6V42z M37.7,33.5c-0.2,0-0.4,0-0.6,0.1c0.6-8.2,7.5-14.7,15.8-14.7
		c8.4,0,15.2,6.5,15.8,14.7c-0.2,0-0.4-0.1-0.5-0.1h-0.8c-1.2-6.9-7.2-12.2-14.4-12.2s-13.2,5.3-14.4,12.2H37.7z M40.8,42v-5
		c3.8-0.3,7.1-2.2,8.7-4.7c2.6,3.4,8.5,5.8,15.7,6V42c0,2.8-0.9,5.3-2.5,7.3H53v2.4h7.3c-0.7,0.5-1.5,1-2.3,1.3
		c-3.2,1.5-6.9,1.5-10.1,0C43.7,51.2,40.8,47,40.8,42z M49.2,56.1c1.2,0.3,2.5,0.5,3.8,0.5c1.3,0,2.6-0.2,3.8-0.5L53,63.7L49.2,56.1
		z M51,65.2h-2.2L44,55.4h2.2L51,65.2z M59.8,55.4H62l-4.9,9.8h-2.1L59.8,55.4z M29.8,71.3v15.9h-3.7V71.3c0-8.5,6.7-15.4,15.1-15.8
		l4.9,9.7H35.9C32.5,65.2,29.8,67.9,29.8,71.3z M73.7,87.2H32.2V71.3c0-2,1.6-3.7,3.7-3.7H70c2,0,3.7,1.6,3.7,3.7V87.2z M79.8,87.2
		h-3.7V71.3c0-3.4-2.7-6.1-6.1-6.1H59.8l4.9-9.7c8.4,0.4,15.1,7.3,15.1,15.8V87.2z"/>
	<g id="XMLID_22_">
		<polygon id="XMLID_35_" fill="#D8C9E3" points="51,65.2 48.8,65.2 44,55.4 46.1,55.4 		"/>
		<polygon id="XMLID_34_" fill="#D8C9E3" points="62,55.4 57.1,65.2 54.9,65.2 59.8,55.4 		"/>
	</g>
	<rect id="XMLID_20_" x="79.8" y="27.4" fill="#8186BD" width="2.4" height="2.4"/>
	<rect id="XMLID_19_" x="79.8" y="32.3" fill="#575FA8" width="2.4" height="2.4"/>
	<rect id="XMLID_18_" x="79.8" y="37.1" fill="#2E368F" width="2.4" height="2.4"/>
	<rect id="XMLID_17_" x="23.7" y="42" fill="#8186BD" width="2.4" height="2.4"/>
	<rect id="XMLID_16_" x="23.7" y="46.9" fill="#575FA8" width="2.4" height="2.4"/>
	<rect id="XMLID_15_" x="23.7" y="51.8" fill="#2E368F" width="2.4" height="2.4"/>
	<g id="XMLID_14_">
		<path id="XMLID_29_" fill="#2E368F" d="M60.2,79.6C60.2,79.6,60.2,79.6,60.2,79.6C60.2,79.6,60.2,79.6,60.2,79.6
			c-0.1,0.1-0.1,0.1-0.1,0.1c0,0,0,0.1-0.1,0.1c0,0,0,0,0,0c0,0-0.1,0.1-0.1,0.1c-0.1,0.1-0.2,0.2-0.4,0.3c-0.6,0.5-1.4,0.7-2.2,0.7
			c-0.1,0-0.1,0-0.2,0c-0.3,0-0.5-0.1-0.8-0.1c-0.4-0.1-0.9-0.3-1.2-0.6c-0.1-0.1-0.2-0.2-0.4-0.3c-0.1-0.1-0.2-0.2-0.3-0.4l0.3-0.3
			l0.3-0.3l0,0l1.5-1.5l0.3-0.3l1.8-1.8v0c-0.1-0.1-0.3-0.2-0.4-0.2c-0.2-0.1-0.3-0.1-0.5-0.2h0c-0.2,0-0.4-0.1-0.6-0.1
			c-0.5,0-1.1,0.2-1.5,0.5c-0.1,0.1-0.3,0.2-0.4,0.3v0c-0.1,0.1-0.2,0.2-0.3,0.4l-0.7-0.7c0.1-0.1,0.2-0.2,0.3-0.3l0,0l0.3-0.3
			c0.4-0.3,0.8-0.5,1.2-0.6c0.3-0.1,0.5-0.1,0.8-0.1c0.1,0,0.1,0,0.2,0c0.5,0,0.9,0.1,1.3,0.3c0.2,0.1,0.3,0.1,0.4,0.2
			c0.1,0.1,0.3,0.2,0.4,0.3c0.1,0.1,0.2,0.2,0.4,0.3v0c0.1,0.1,0.2,0.2,0.3,0.4l-0.7,0.7L58,77.4l-0.3,0.3l-0.3,0.3l-1.5,1.5
			c0.9,0.6,2.1,0.6,3,0c0.1-0.1,0.2-0.2,0.4-0.3h0c0.1-0.1,0.2-0.2,0.3-0.4L60.2,79.6z"/>
		<g id="XMLID_26_">
			<path id="XMLID_28_" fill="#2E368F" d="M49.5,73.9"/>
			<path id="XMLID_128_" fill="#2E368F" d="M54.3,78.1l-0.5-0.5l-0.2-0.2l-0.3-0.3L53,76.7l-1.8-1.8l0,0l-0.1-0.1l0,0
				c-0.4-0.4-1-0.7-1.5-0.9l0,0c-0.3-0.1-0.5-0.1-0.8-0.1c-1,0-2,0.3-2.7,1c-1.4,1.4-1.4,3.7,0,5.1c0.7,0.7,1.6,1,2.5,1
				c0.1,0,0.1,0,0.2,0c0.3,0,0.5-0.1,0.8-0.1h0c0.1,0,0.3-0.1,0.4-0.1c0.4-0.2,0.8-0.4,1.2-0.8l0,0c0.5-0.5,0.8-1,0.9-1.6v0
				c0.1-0.3,0.1-0.5,0.1-0.8v0c0-0.1,0-0.2,0-0.3l0.5,0.5l0.3,0.3l0.9,0.9l0.2-0.2l0.1-0.1l0.2-0.2l0.1-0.1L54.3,78.1z M46.7,79.3
				c-1-1-1-2.7,0-3.7c0.5-0.5,1.2-0.8,1.9-0.8c0.7,0,1.4,0.3,1.9,0.8c1,1,1,2.7,0,3.7C49.4,80.3,47.7,80.3,46.7,79.3z"/>
		</g>
		<g id="XMLID_25_">
			<path id="XMLID_111_" fill="#7671B1" d="M60.9,77.4c0,0.6-0.2,1.2-0.5,1.7l-0.7-0.7c0,0,0,0,0,0c0.1-0.3,0.2-0.7,0.2-1
				c0-0.4-0.1-0.8-0.2-1.1l0.1-0.1l0.6-0.6C60.8,76.2,60.9,76.8,60.9,77.4z"/>
		</g>
		<path id="XMLID_24_" fill="#7671B1" d="M55.2,76.7l-1.8-1.8l0,0l-0.1-0.1l0,0c-0.4-0.4-1-0.7-1.5-0.9c-0.2,0-0.3-0.1-0.5-0.1
			c-0.1,0-0.2,0-0.3,0l1.6,1.6l2.4,2.4l0.3-0.3l0.3-0.3L55.2,76.7z"/>
		<path id="XMLID_27_" fill="#7671B1" d="M52.8,78.7c-0.1,0.2-0.1,0.3-0.2,0.5c-0.1,0.2-0.1,0.3-0.2,0.4l0.2,0.2l0,0l0.1,0.1l0,0
			c0.4,0.4,1,0.7,1.5,0.9c0.3,0.1,0.5,0.1,0.8,0.1L52.8,78.7z"/>
	</g>
</g>
</svg>
