<?xml version="1.0" encoding="utf-8"?>
<!-- Generator: Adobe Illustrator 19.0.0, SVG Export Plug-In . SVG Version: 6.00 Build 0)  -->
<svg version="1.1" id="Logo" xmlns="http://www.w3.org/2000/svg" xmlns:xlink="http://www.w3.org/1999/xlink" x="0px" y="0px"
	 viewBox="0 0 100 68.3" style="enable-background:new 0 0 100 68.3;" xml:space="preserve">
<style type="text/css">
	.st0{fill:#2E3191;}
	.st1{fill:#7670B2;}
</style>
<g id="logo-img">
	<path id="XMLID_451_" class="st0" d="M95.4,36.1C95.4,36.1,95.3,36.1,95.4,36.1c-0.2,0.3-0.3,0.4-0.5,0.6c-0.1,0.1-0.2,0.2-0.2,0.3
		c-0.2,0.2-0.3,0.3-0.5,0.5c-0.1,0.1-0.1,0.2-0.2,0.2c-0.2,0.2-0.4,0.4-0.6,0.6c-0.7,0.7-1.5,1.4-2.2,1.9c-4,3.1-8.8,4.6-13.6,4.6
		c-0.3,0-0.7,0-1,0c-1.7-0.1-3.3-0.3-4.9-0.8c-2.7-0.8-5.4-2-7.7-3.8c-0.8-0.6-1.5-1.2-2.2-1.9c-0.7-0.7-1.4-1.4-1.9-2.2l2.1-2.1
		l1.9-1.9l0.2-0.2l9.4-9.4l2.1-2.1L87,8.9v0c-0.8-0.6-1.7-1.1-2.7-1.5c-1-0.5-2.1-0.8-3.1-1h0C80,6,78.8,5.9,77.6,5.9
		c-3.4,0-6.7,1-9.4,2.9c-0.8,0.6-1.6,1.2-2.3,1.9v0c-0.7,0.7-1.3,1.5-1.9,2.3l-4.2-4.2c0.5-0.7,1.1-1.4,1.8-2.1l0.3-0.3l2.1-1.8
		c2.3-1.8,4.9-3.1,7.8-3.8c1.6-0.4,3.2-0.7,4.9-0.8c0.3,0,0.6,0,1,0c2.9,0,5.7,0.5,8.3,1.6c1,0.4,1.9,0.8,2.8,1.4
		c0.9,0.5,1.7,1.1,2.5,1.7c0.8,0.6,1.5,1.2,2.2,1.9v0c0.7,0.7,1.4,1.4,1.9,2.2L91.1,13l-9.4,9.4l-2.1,2.1l-2.1,2.1L68.1,36
		c5.6,3.9,13.2,3.9,18.8,0c0.8-0.6,1.6-1.2,2.3-1.9h0c0.7-0.7,1.3-1.5,1.9-2.3L95.4,36.1z"/>
	<g id="XMLID_440_">
		<path id="XMLID_449_" class="st0" d="M28.4,0.8"/>
		<path id="XMLID_444_" class="st0" d="M58.6,26.8l-3.4-3.4l-1-1l-2.1-2.1L50,18.3L38.7,7l-0.2-0.2l-0.4-0.4l-0.2-0.2
			c-2.8-2.6-6.1-4.4-9.5-5.4l0,0c-1.6-0.4-3.3-0.7-4.9-0.8C17.3-0.2,11.2,1.9,6.6,6.6c-8.7,8.8-8.7,23,0,31.7
			c4.4,4.4,10.1,6.6,15.9,6.6c0.3,0,0.6,0,1,0c1.7-0.1,3.3-0.3,4.9-0.8h0c0.9-0.2,1.7-0.5,2.5-0.9c2.7-1.1,5.2-2.7,7.4-4.9l0.1-0.1
			c2.8-2.8,4.7-6.3,5.7-9.9v0c0.4-1.6,0.7-3.3,0.8-4.9v0c0-0.7,0-1.3,0-2l3.1,3.1l2.1,2.1l5.4,5.4l1.3-1.3l0.8-0.8l1.5-1.5l0.6-0.6
			L58.6,26.8z M10.7,34.1c-6.4-6.4-6.4-16.9,0-23.4c3.2-3.2,7.5-4.8,11.7-4.8s8.5,1.6,11.7,4.8c6.4,6.4,6.4,16.9,0,23.4
			C27.7,40.6,17.2,40.6,10.7,34.1z"/>
	</g>
	<g id="XMLID_438_">
		<path id="XMLID_439_" class="st1" d="M100,22.5c0,3.9-1,7.6-2.8,10.9L92.8,29c0-0.1,0.1-0.1,0.1-0.2c0.8-2,1.3-4.1,1.3-6.3
			c0-2.4-0.5-4.8-1.5-6.9l0.7-0.7l3.7-3.7C98.9,14.6,100,18.5,100,22.5z"/>
	</g>
	<path id="XMLID_437_" class="st1" d="M63.8,18.2L52.5,7l-0.2-0.2l-0.4-0.4l-0.2-0.2c-2.8-2.6-6.1-4.4-9.5-5.4
		c-1-0.3-2.1-0.5-3.1-0.6C38.4,0.1,37.8,0,37.2,0l10.2,10.2L62.2,25l2.1-2.1l2.1-2.1L63.8,18.2z"/>
	<path id="XMLID_435_" class="st1" d="M49,30.8c-0.3,1-0.7,2-1.1,3c-0.4,0.9-0.9,1.9-1.4,2.8l1.2,1.2l0.2,0.2l0.4,0.4l0.2,0.2
		c2.8,2.6,6.1,4.4,9.5,5.4c1.6,0.4,3.3,0.7,4.9,0.8L49,30.8z"/>
</g>
<g id="logo-text">
	<g id="XMLID_416_">
		<path id="XMLID_28_" class="st1" d="M16.9,55.7c0.1,0.1,0.1,0.2,0.1,0.3v8.2c0,0.1,0,0.2-0.1,0.3s-0.2,0.1-0.3,0.1
			c-0.1,0-0.2,0-0.3-0.1s-0.1-0.2-0.1-0.3v-1.6c-0.3,0.6-0.8,1.1-1.4,1.5c-0.6,0.4-1.3,0.6-2.1,0.6c-0.8,0-1.5-0.2-2.1-0.6
			c-0.6-0.4-1.1-1-1.5-1.7c-0.4-0.7-0.5-1.5-0.5-2.4c0-0.9,0.2-1.7,0.5-2.4s0.9-1.3,1.5-1.7c0.6-0.4,1.3-0.6,2.1-0.6
			c0.8,0,1.5,0.2,2.1,0.6s1.1,0.9,1.3,1.6V56c0-0.1,0-0.2,0.1-0.3s0.2-0.1,0.3-0.1S16.8,55.7,16.9,55.7z M14.6,63.5
			c0.5-0.4,0.9-0.8,1.2-1.5c0.3-0.6,0.4-1.3,0.4-2.1c0-0.7-0.1-1.4-0.4-2c-0.3-0.6-0.7-1.1-1.2-1.4c-0.5-0.4-1.1-0.5-1.8-0.5
			s-1.2,0.2-1.8,0.5c-0.5,0.3-0.9,0.8-1.2,1.4c-0.3,0.6-0.4,1.3-0.4,2c0,0.8,0.1,1.5,0.4,2.1s0.7,1.1,1.2,1.5
			c0.5,0.4,1.1,0.5,1.8,0.5C13.5,64,14.1,63.8,14.6,63.5z"/>
		<path id="XMLID_31_" class="st1" d="M20.6,64.4c-0.1,0.1-0.2,0.1-0.3,0.1c-0.1,0-0.2,0-0.3-0.1S20,64.3,20,64.2V51.7
			c0-0.1,0-0.2,0.1-0.3c0.1-0.1,0.2-0.1,0.2-0.1c0.1,0,0.2,0,0.3,0.1s0.1,0.2,0.1,0.3v12.5C20.7,64.3,20.7,64.3,20.6,64.4z"/>
		<path id="XMLID_33_" class="st1" d="M30.9,62.5c0.1,0.1,0.1,0.1,0.1,0.2c0,0.1,0,0.2-0.1,0.2c-0.4,0.5-0.9,1-1.5,1.3
			c-0.6,0.3-1.2,0.5-1.9,0.5c-0.9,0-1.7-0.2-2.4-0.6c-0.7-0.4-1.2-0.9-1.6-1.6C23.2,61.8,23,61,23,60.1c0-1,0.2-1.8,0.6-2.5
			c0.4-0.7,0.9-1.3,1.5-1.7c0.6-0.4,1.3-0.6,2-0.6s1.4,0.2,2,0.5c0.6,0.3,1.1,0.8,1.5,1.4c0.4,0.6,0.6,1.4,0.6,2.2
			c0,0.1,0,0.2-0.1,0.3c-0.1,0.1-0.2,0.1-0.2,0.1h-7V60c0,0.7,0.1,1.4,0.4,2c0.3,0.6,0.7,1.1,1.3,1.5s1.3,0.5,2.1,0.5
			c0.6,0,1.1-0.1,1.6-0.4c0.5-0.3,0.9-0.6,1.2-1.1c0.1-0.1,0.2-0.2,0.3-0.2C30.7,62.4,30.8,62.4,30.9,62.5z M25.7,56.4
			c-0.5,0.2-0.9,0.6-1.2,1c-0.4,0.5-0.6,1-0.7,1.7h6.6v-0.2c-0.1-0.6-0.3-1.1-0.6-1.6c-0.3-0.4-0.7-0.8-1.2-1S27.5,56,27,56
			C26.6,56,26.1,56.2,25.7,56.4z"/>
		<path id="XMLID_36_" class="st1" d="M39.6,56.1c0.6,0.4,1.1,0.9,1.5,1.6s0.5,1.5,0.5,2.3c0,0.9-0.2,1.6-0.5,2.3
			c-0.4,0.7-0.9,1.2-1.5,1.6c-0.6,0.4-1.3,0.6-2.1,0.6c-0.7,0-1.4-0.2-2-0.5c-0.6-0.4-1.1-0.9-1.5-1.5v5.2c0,0.1,0,0.2-0.1,0.3
			c-0.1,0.1-0.2,0.1-0.3,0.1c-0.1,0-0.2,0-0.3-0.1c-0.1-0.1-0.1-0.2-0.1-0.3V55.9c0-0.1,0-0.2,0.1-0.3c0.1-0.1,0.2-0.1,0.3-0.1
			c0.1,0,0.2,0,0.3,0.1c0.1,0.1,0.1,0.2,0.1,0.3v1.6c0.4-0.7,0.8-1.2,1.4-1.5c0.6-0.3,1.3-0.5,2-0.5C38.3,55.5,39,55.7,39.6,56.1z
			 M39.3,63.5c0.5-0.3,0.9-0.8,1.2-1.4c0.3-0.6,0.5-1.3,0.5-2s-0.2-1.4-0.5-2c-0.3-0.6-0.7-1-1.2-1.4s-1.1-0.5-1.8-0.5
			c-0.7,0-1.3,0.2-1.8,0.5c-0.5,0.3-0.9,0.8-1.2,1.4c-0.3,0.6-0.4,1.3-0.4,2s0.1,1.4,0.4,2c0.3,0.6,0.7,1.1,1.2,1.4
			c0.5,0.3,1.1,0.5,1.8,0.5C38.1,64,38.7,63.8,39.3,63.5z"/>
		<path id="XMLID_39_" class="st1" d="M50.2,56.5c0.5,0.6,0.8,1.5,0.8,2.5v5.2c0,0.1,0,0.2-0.1,0.3s-0.2,0.1-0.3,0.1
			c-0.1,0-0.2,0-0.3-0.1s-0.1-0.2-0.1-0.3V59c0-0.8-0.2-1.5-0.6-2c-0.4-0.5-1-0.8-1.9-0.8c-0.5,0-1,0.1-1.5,0.4s-0.9,0.6-1.2,1
			c-0.3,0.4-0.5,0.9-0.5,1.4v5.2c0,0.1,0,0.2-0.1,0.3s-0.2,0.1-0.2,0.1c-0.1,0-0.2,0-0.3-0.1C44,64.3,44,64.3,44,64.2V51.7
			c0-0.1,0-0.2,0.1-0.3s0.2-0.1,0.3-0.1c0.1,0,0.2,0,0.3,0.1c0.1,0.1,0.1,0.2,0.1,0.3v5.6c0.3-0.5,0.8-1,1.4-1.3
			c0.6-0.3,1.2-0.5,1.8-0.5C48.9,55.5,49.7,55.8,50.2,56.5z"/>
		<path id="XMLID_41_" class="st1" d="M64.9,55.9l-5.6,7.9h5.2c0.1,0,0.2,0,0.3,0.1c0.1,0.1,0.1,0.1,0.1,0.2c0,0.1,0,0.2-0.1,0.2
			s-0.2,0.1-0.3,0.1h-5.8c-0.1,0-0.2,0-0.3-0.1c-0.1-0.1-0.1-0.2-0.1-0.2s0-0.1,0.1-0.2L64,56h-4.8c-0.1,0-0.2,0-0.2-0.1
			s-0.1-0.1-0.1-0.2s0-0.2,0.1-0.2c0.1-0.1,0.2-0.1,0.2-0.1h5.5c0.1,0,0.2,0,0.2,0.1c0.1,0.1,0.1,0.2,0.1,0.3
			C65,55.8,65,55.9,64.9,55.9z"/>
		<path id="XMLID_43_" class="st1" d="M74.4,62.5c0.1,0.1,0.1,0.1,0.1,0.2c0,0.1,0,0.2-0.1,0.2c-0.4,0.5-0.9,1-1.5,1.3
			c-0.6,0.3-1.2,0.5-1.9,0.5c-0.9,0-1.7-0.2-2.4-0.6c-0.7-0.4-1.2-0.9-1.6-1.6c-0.4-0.7-0.6-1.5-0.6-2.4c0-1,0.2-1.8,0.6-2.5
			c0.4-0.7,0.9-1.3,1.5-1.7c0.6-0.4,1.3-0.6,2-0.6s1.4,0.2,2,0.5c0.6,0.3,1.1,0.8,1.5,1.4c0.4,0.6,0.6,1.4,0.6,2.2
			c0,0.1,0,0.2-0.1,0.3c-0.1,0.1-0.2,0.1-0.2,0.1h-7V60c0,0.7,0.1,1.4,0.4,2c0.3,0.6,0.7,1.1,1.3,1.5s1.3,0.5,2.1,0.5
			c0.6,0,1.1-0.1,1.6-0.4c0.5-0.3,0.9-0.6,1.2-1.1c0.1-0.1,0.2-0.2,0.3-0.2C74.3,62.4,74.4,62.4,74.4,62.5z M69.2,56.4
			c-0.5,0.2-0.9,0.6-1.2,1c-0.4,0.5-0.6,1-0.7,1.7h6.6v-0.2c-0.1-0.6-0.3-1.1-0.6-1.6c-0.3-0.4-0.7-0.8-1.2-1s-1-0.3-1.5-0.3
			C70.2,56,69.7,56.2,69.2,56.4z"/>
		<path id="XMLID_46_" class="st1" d="M81.8,55.7c0,0.1,0,0.2-0.1,0.3s-0.1,0.1-0.2,0.1c0,0-0.1,0-0.3-0.1S81,56,80.8,56
			c-0.5,0-1,0.2-1.5,0.6c-0.5,0.4-0.9,0.9-1.2,1.5c-0.3,0.6-0.5,1.2-0.5,1.7v4.5c0,0.1,0,0.2-0.1,0.3s-0.2,0.1-0.2,0.1
			c-0.1,0-0.2,0-0.3-0.1C77,64.3,77,64.3,77,64.2V56c0-0.1,0-0.2,0.1-0.3s0.2-0.1,0.3-0.1c0.1,0,0.2,0,0.3,0.1
			c0.1,0.1,0.1,0.2,0.1,0.3v1.9c0.3-0.7,0.7-1.3,1.3-1.8c0.6-0.5,1.3-0.7,2-0.7C81.5,55.3,81.8,55.5,81.8,55.7z"/>
		<path id="XMLID_48_" class="st1" d="M90.7,62.4c-0.4,0.7-0.9,1.3-1.6,1.7c-0.7,0.4-1.4,0.6-2.2,0.6s-1.6-0.2-2.2-0.6
			c-0.7-0.4-1.2-1-1.6-1.7s-0.6-1.5-0.6-2.4c0-0.9,0.2-1.7,0.6-2.4s0.9-1.3,1.6-1.7c0.7-0.4,1.4-0.6,2.2-0.6c0.8,0,1.6,0.2,2.2,0.6
			c0.7,0.4,1.2,1,1.6,1.7c0.4,0.7,0.6,1.5,0.6,2.4S91.1,61.7,90.7,62.4z M90.1,58c-0.3-0.6-0.8-1.1-1.3-1.4
			c-0.6-0.4-1.2-0.5-1.9-0.5c-0.7,0-1.3,0.2-1.9,0.5c-0.6,0.4-1,0.8-1.3,1.4c-0.3,0.6-0.5,1.3-0.5,2.1c0,0.7,0.2,1.4,0.5,2
			c0.3,0.6,0.8,1.1,1.3,1.4c0.6,0.4,1.2,0.5,1.9,0.5c0.7,0,1.3-0.2,1.9-0.5s1-0.8,1.3-1.4c0.3-0.6,0.5-1.3,0.5-2
			C90.6,59.3,90.4,58.6,90.1,58z"/>
	</g>
</g>
</svg>
